<svg width="386" height="215" viewBox="0 0 386 215" xmlns="http://www.w3.org/2000/svg" xmlns:xlink="http://www.w3.org/1999/xlink">
  <defs>
    <circle id="a" cx="184" cy="104" r="24"/>
    <circle id="b" cx="104" cy="104" r="24"/>
    <circle id="c" cx="24" cy="104" r="24"/>
    <circle id="d" cx="184" cy="24" r="24"/>
    <circle id="e" cx="104" cy="24" r="24"/>
    <circle id="f" cx="24" cy="24" r="24"/>
  </defs>
  <g fill="none" fill-rule="evenodd">
    <g transform="translate(0 2)">
      <use fill="#BA0C2F" xlink:href="#a"/>
      <circle stroke="#BA0C2F" cx="184" cy="104" r="23.5"/>
    </g>
    <g transform="translate(0 2)">
      <use fill="#BA0C2F" xlink:href="#b"/>
      <circle stroke="#BA0C2F" stroke-width="5" cx="104" cy="104" r="21.5"/>
    </g>
    <g transform="translate(0 2)">
      <use fill="#BA0C2F" xlink:href="#c"/>
      <circle stroke="#BA0C2F" stroke-width="5" cx="24" cy="104" r="21.5"/>
    </g>
    <g transform="translate(0 2)">
      <use fill="#BA0C2F" xlink:href="#d"/>
      <circle stroke="#BA0C2F" cx="184" cy="24" r="23.5"/>
    </g>
    <g transform="translate(0 2)">
      <use fill="#BA0C2F" xlink:href="#e"/>
      <circle stroke="#BA0C2F" cx="104" cy="24" r="23.5"/>
    </g>
    <g transform="translate(0 2)">
      <use fill="#BA0C2F" xlink:href="#f"/>
      <circle stroke="#BA0C2F" stroke-width="5" cx="24" cy="24" r="21.5"/>
    </g>
    <path d="M16.03 193.135V212H4.2v-50.995h16.59c3.687 0 6.83.38 9.433 1.138 2.6.758 4.724 1.814 6.37 3.167 1.645 1.353 2.84 2.952 3.587 4.795.747 1.843 1.12 3.85 1.12 6.02 0 1.657-.222 3.22-.665 4.69-.443 1.47-1.102 2.83-1.977 4.078-.876 1.248-1.95 2.362-3.22 3.342-1.272.98-2.736 1.785-4.393 2.415.793.397 1.534.887 2.222 1.47.69.583 1.29 1.295 1.803 2.135L45.92 212H35.21c-1.983 0-3.407-.747-4.27-2.24l-8.47-14.805c-.373-.653-.81-1.12-1.313-1.4-.5-.28-1.207-.42-2.117-.42h-3.01zm0-8.155h4.76c1.61 0 2.98-.204 4.113-.612 1.13-.41 2.06-.975 2.782-1.698.723-.723 1.248-1.57 1.575-2.537.327-.97.49-2.013.49-3.133 0-2.24-.73-3.99-2.188-5.25-1.458-1.26-3.715-1.89-6.772-1.89h-4.76v15.12zm103.55-23.975v9.1H98.65v11.9h16.03v8.75H98.65V202.9h20.93v9.1H86.75v-50.995h32.83zm88.99 25.48c0 3.687-.636 7.087-1.907 10.202-1.272 3.116-3.063 5.81-5.373 8.085-2.31 2.276-5.092 4.05-8.347 5.32-3.256 1.272-6.866 1.908-10.833 1.908H162.3v-50.995h19.81c3.967 0 7.577.642 10.832 1.925 3.256 1.283 6.038 3.057 8.348 5.32 2.31 2.263 4.1 4.952 5.373 8.067 1.27 3.116 1.907 6.505 1.907 10.168zm-12.11 0c0-2.52-.327-4.795-.98-6.825-.653-2.03-1.592-3.75-2.817-5.162-1.226-1.412-2.725-2.497-4.498-3.255-1.773-.76-3.792-1.138-6.055-1.138h-7.91V202.9h7.91c2.263 0 4.282-.38 6.055-1.138 1.773-.758 3.272-1.843 4.498-3.255 1.225-1.41 2.164-3.132 2.817-5.162s.98-4.317.98-6.86zM322.76 78.165c7.637 0 15.177 1.257 22.62 3.77 7.443 2.513 14.113 6.38 20.01 11.6 5.897 5.22 10.657 11.817 14.283 19.793 3.625 7.975 5.437 17.375 5.437 28.202 0 9.86-1.837 19.212-5.51 28.058-3.673 8.845-8.87 16.578-15.588 23.2-6.718 6.62-14.814 11.865-24.287 15.732-9.473 3.867-19.962 5.8-31.465 5.8-11.793 0-22.378-1.86-31.755-5.582-9.377-3.722-17.327-8.918-23.852-15.588-6.526-6.67-11.504-14.645-14.935-23.925-3.432-9.28-5.148-19.478-5.148-30.595 0-10.537 2.03-21.025 6.09-31.465 4.06-10.44 10.053-21.073 17.98-31.9L304.2 11.03c2.127-2.9 5.317-5.34 9.57-7.322 4.253-1.982 9.087-2.973 14.5-2.973h40.02l-62.64 74.82c-.967 1.063-1.91 2.15-2.827 3.262-.92 1.112-1.813 2.2-2.683 3.263 3.383-1.257 6.936-2.223 10.658-2.9 3.72-.677 7.71-1.015 11.962-1.015zm-46.98 66.555c0 5.22.628 9.908 1.885 14.065 1.257 4.157 3.19 7.733 5.8 10.73 2.61 2.997 5.897 5.292 9.86 6.888 3.963 1.595 8.652 2.392 14.065 2.392 4.64 0 8.966-.87 12.978-2.61 4.01-1.74 7.467-4.132 10.367-7.178 2.9-3.045 5.196-6.62 6.887-10.73 1.692-4.108 2.538-8.58 2.538-13.412 0-5.413-.797-10.247-2.393-14.5-1.595-4.253-3.842-7.83-6.742-10.73-2.9-2.9-6.404-5.123-10.512-6.67-4.11-1.547-8.676-2.32-13.703-2.32-4.543 0-8.7.797-12.47 2.392-3.77 1.596-7.032 3.89-9.787 6.888-2.756 2.997-4.906 6.573-6.453 10.73-1.547 4.157-2.32 8.845-2.32 14.065z" fill="#000"/>
  </g>
</svg>
