<?xml version="1.0" encoding="UTF-8" standalone="no"?>
<!-- Created with Inkscape (http://www.inkscape.org/) -->

<svg
   xmlns:dc="http://purl.org/dc/elements/1.1/"
   xmlns:cc="http://creativecommons.org/ns#"
   xmlns:rdf="http://www.w3.org/1999/02/22-rdf-syntax-ns#"
   xmlns:svg="http://www.w3.org/2000/svg"
   xmlns="http://www.w3.org/2000/svg"
   xmlns:sodipodi="http://sodipodi.sourceforge.net/DTD/sodipodi-0.dtd"
   xmlns:inkscape="http://www.inkscape.org/namespaces/inkscape"
   id="svg3004"
   version="1.1"
   inkscape:version="0.48.4 r9939"
   width="256.725"
   height="108.8875"
   xml:space="preserve"
   sodipodi:docname="red6_logo_P200c_RZ.eps"><metadata
     id="metadata3010"><rdf:RDF><cc:Work
         rdf:about=""><dc:format>image/svg+xml</dc:format><dc:type
           rdf:resource="http://purl.org/dc/dcmitype/StillImage" /><dc:title></dc:title></cc:Work></rdf:RDF></metadata><defs
     id="defs3008" /><sodipodi:namedview
     pagecolor="#ffffff"
     bordercolor="#666666"
     borderopacity="1"
     objecttolerance="10"
     gridtolerance="10"
     guidetolerance="10"
     inkscape:pageopacity="0"
     inkscape:pageshadow="2"
     inkscape:window-width="1681"
     inkscape:window-height="955"
     id="namedview3006"
     showgrid="false"
     inkscape:zoom="1.691162"
     inkscape:cx="297.36175"
     inkscape:cy="63.060945"
     inkscape:window-x="10"
     inkscape:window-y="34"
     inkscape:window-maximized="0"
     inkscape:current-layer="g3012" /><g
     id="g3012"
     inkscape:groupmode="layer"
     inkscape:label="ink_ext_XXXXXX"
     transform="matrix(1.25,0,0,-1.25,0,108.8875)"><g
       id="g3014"
       transform="scale(0.1,0.1)"><path
         d="m 1539.48,474.469 c 0,55.636 -27.39,84.75 -73.62,84.75 -50.49,0 -77.04,-36.813 -77.04,-77.903 0,-52.218 24.82,-91.589 74.49,-91.589 50.49,0 76.17,35.941 76.17,84.742"
         style="fill:#c61238;fill-opacity:1;fill-rule:nonzero;stroke:none"
         id="path3016" /><path
         d="m 1621.67,871.078 0,-101.269 c -20.55,2.57 -44.52,5.136 -63.34,5.136 -86.47,0 -143.83,-43.656 -168.66,-119 -1.71,-6.847 -4.27,-14.55 -6.84,-23.109 l 0.86,-0.859 c 23.96,23.968 65.91,39.378 113.85,39.378 111.29,0 179.77,-71.906 179.77,-184.046 0,-66.371 -26.98,-122.153 -72.58,-159.664 137,15.57 243.47,131.808 243.47,272.964 0,135.282 -97.79,247.645 -226.53,270.469"
         style="fill:#c61238;fill-opacity:1;fill-rule:nonzero;stroke:none"
         id="path3018" /><path
         d="M 148.07,643.309 C 89.2031,649.758 58.8711,609.324 46.3906,568.887 l -1.1914,0 c 4.7539,24.035 6.543,50.98 6.543,69.148 l -51.7422,0 0,-291.219 53.5195,0 0,117.192 c 0,93.172 29.7344,138.281 92.1715,127.742 l 2.379,51.559"
         style="fill:#231f20;fill-opacity:1;fill-rule:nonzero;stroke:none"
         id="path3020" /><path
         d="m 613.176,520.844 c 0,66.801 -35.086,122.461 -118.332,122.461 -83.852,0 -132.024,-65.039 -132.024,-152.336 0,-102.551 48.762,-149.426 139.743,-149.426 36.871,0 71.359,6.445 99.91,18.164 l -4.758,42.773 c -23.793,-11.132 -55.902,-18.164 -86.231,-18.164 -63.031,0 -95.73,33.399 -93.359,111.329 l 193.266,0 c 1.191,9.968 1.785,18.168 1.785,25.199 m -54.715,12.301 -137.957,0 c 5.949,42.777 33.301,71.488 71.957,71.488 41.621,0 67.191,-28.711 66,-71.488"
         style="fill:#231f20;fill-opacity:1;fill-rule:nonzero;stroke:none"
         id="path3022" /><path
         d="m 1119.14,499.324 c 0,102.844 -62.62,145.703 -161.781,145.703 -34.211,0 -77.703,-1.148 -103.214,-1.148 l 0,-297.102 c 24.363,-0.566 51.613,-1.718 87.566,-1.718 101.469,0 177.429,48.574 177.429,154.265 m -55.66,-2.859 c 0,-74.277 -47.55,-107.969 -115.968,-107.969 -13.34,0 -31.324,0.567 -40.594,1.699 l 0,211.973 c 13.332,0.582 30.148,1.148 42.91,1.148 75.382,0 113.652,-35.996 113.652,-106.851"
         style="fill:#231f20;fill-opacity:1;fill-rule:nonzero;stroke:none"
         id="path3024" /><path
         d="m 393.313,100.547 c -10.086,0 -17.29,-7.3439 -19.016,-18.5743 l 36.301,0 c 0.285,11.0937 -6.34,18.5743 -17.285,18.5743 z m 28.23,-26.6407 -47.82,0 c -0.719,-21.4649 7.777,-30.3907 23.761,-30.3907 7.493,0 15.414,1.8555 20.743,4.6094 l 1.011,-9.2187 c -6.625,-2.754 -14.691,-4.336 -23.625,-4.336 -21.605,0 -33.129,11.6797 -33.129,36.7383 0,21.4648 11.524,37.4414 31.403,37.4414 19.73,0 27.945,-13.6719 27.945,-29.5117 0,-1.3086 0,-3.1836 -0.289,-5.332"
         style="fill:#231f20;fill-opacity:1;fill-rule:nonzero;stroke:none"
         id="path3026" /><path
         d="m 514.848,35.8789 0,46.3672 c 0,11.25 -3.024,17.7344 -13.395,17.7344 -12.816,0 -21.89,-12.6758 -21.89,-29.6875 l 0,-34.4141 -10.809,0 0,71.5821 10.664,0 c 0,-4.609 -0.434,-11.5235 -1.152,-15.8399 l 0.285,-0.1563 c 4.031,10.3712 13.109,17.4412 25.644,17.4412 16.414,0 21.457,-10.3708 21.457,-23.0466 l 0,-49.9805 -10.804,0"
         style="fill:#231f20;fill-opacity:1;fill-rule:nonzero;stroke:none"
         id="path3028" /><path
         d="m 599.945,34.7266 c -14.402,0 -18.578,6.3281 -18.578,21.1718 l 0,43.0664 -15.554,0 0,8.4962 15.554,0 0,23.769 10.805,3.028 0,-26.797 21.027,0 0,-8.4962 -21.027,0 0,-38.6132 c 0,-12.8125 2.305,-16.1328 10.801,-16.1328 3.605,0 7.343,0.4492 10.226,1.3085 l 0,-9.375 c -3.742,-0.8593 -8.785,-1.4257 -13.254,-1.4257"
         style="fill:#231f20;fill-opacity:1;fill-rule:nonzero;stroke:none"
         id="path3030" /><path
         d="m 682.75,100.547 c -10.082,0 -17.285,-7.3439 -19.016,-18.5743 l 36.301,0 c 0.285,11.0937 -6.34,18.5743 -17.285,18.5743 z m 28.23,-26.6407 -47.82,0 c -0.722,-21.4649 7.778,-30.3907 23.77,-30.3907 7.488,0 15.41,1.8555 20.742,4.6094 l 1.004,-9.2187 c -6.625,-2.754 -14.692,-4.336 -23.621,-4.336 -21.61,0 -33.129,11.6797 -33.129,36.7383 0,21.4648 11.519,37.4414 31.398,37.4414 19.739,0 27.946,-13.6719 27.946,-29.5117 0,-1.3086 0,-3.1836 -0.29,-5.332"
         style="fill:#231f20;fill-opacity:1;fill-rule:nonzero;stroke:none"
         id="path3032" /><path
         d="M 792.336,98.1055 C 776.488,100.684 769,88.5938 769,64.5313 l 0,-28.6524 -10.801,0 0,71.5821 10.653,0 c 0,-4.746 -0.575,-11.8165 -1.582,-18.0079 l 0.148,-0.1367 c 2.879,10.5078 10.371,21.1716 25.352,19.4336 l -0.434,-10.6445"
         style="fill:#231f20;fill-opacity:1;fill-rule:nonzero;stroke:none"
         id="path3034" /><path
         d="m 868.074,99.8242 c -14.402,0 -21.316,-16.6992 -21.316,-29.375 l 0,-25.0781 c 4.176,-1.2891 8.64,-1.8555 13.969,-1.8555 14.839,0 24.492,8.9258 24.492,30.5274 0,16.1328 -5.332,25.7812 -17.145,25.7812 z M 860.012,35 c -4.899,0 -8.504,0.1563 -13.254,1.0156 l 0,-36.0156 -10.805,0 0,107.461 10.664,0 c 0,-4.316 -0.293,-11.3868 -1.152,-15.5469 l 0.281,-0.1563 c 4.035,10.3712 13.109,16.9922 24.492,16.9922 16.852,0 26.36,-11.6602 26.36,-33.8477 C 896.598,49.2773 882.621,35 860.012,35"
         style="fill:#231f20;fill-opacity:1;fill-rule:nonzero;stroke:none"
         id="path3036" /><path
         d="m 977.227,98.1055 c -15.844,2.5785 -23.336,-9.5117 -23.336,-33.5742 l 0,-28.6524 -10.801,0 0,71.5821 10.656,0 c 0,-4.746 -0.578,-11.8165 -1.582,-18.0079 l 0.145,-0.1367 c 2.882,10.5078 10.371,21.1716 25.351,19.4336 l -0.433,-10.6445"
         style="fill:#231f20;fill-opacity:1;fill-rule:nonzero;stroke:none"
         id="path3038" /><path
         d="m 1020.84,35.8789 0,71.5821 10.81,0 0,-71.5821 -10.81,0 z m 5.48,84.5511 c -4.18,0 -7.49,3.164 -7.49,7.343 0,4.024 3.31,7.344 7.49,7.344 4.04,0 7.49,-3.32 7.49,-7.344 0,-4.179 -3.45,-7.343 -7.49,-7.343"
         style="fill:#231f20;fill-opacity:1;fill-rule:nonzero;stroke:none"
         id="path3040" /><path
         d="m 1095.43,34.5703 c -5.32,0 -10.8,0.586 -15.11,1.4453 l 0.28,9.9414 c 4.61,-1.289 10.37,-2.3047 15.99,-2.3047 10.37,0 17.58,4.6094 17.58,12.0899 0,17.2851 -34.87,6.4844 -34.87,31.9922 0,11.9531 9.81,21.0156 27.95,21.0156 4.46,0 9.51,-0.703 13.98,-1.582 l -0.3,-9.3555 c -4.75,1.582 -9.93,2.4415 -14.83,2.4415 -10.52,0 -15.7,-4.3165 -15.7,-11.3673 0,-17.1484 35,-7.3437 35,-31.6992 0,-12.6758 -11.23,-22.6172 -29.97,-22.6172"
         style="fill:#231f20;fill-opacity:1;fill-rule:nonzero;stroke:none"
         id="path3042" /><path
         d="m 1197.11,100.547 c -10.08,0 -17.28,-7.3439 -19.02,-18.5743 l 36.31,0 c 0.28,11.0937 -6.35,18.5743 -17.29,18.5743 z m 28.23,-26.6407 -47.82,0 c -0.72,-21.4649 7.78,-30.3907 23.76,-30.3907 7.49,0 15.42,1.8555 20.75,4.6094 l 1,-9.2187 c -6.62,-2.754 -14.69,-4.336 -23.61,-4.336 -21.61,0 -33.14,11.6797 -33.14,36.7383 0,21.4648 11.53,37.4414 31.4,37.4414 19.74,0 27.95,-13.6719 27.95,-29.5117 0,-1.3086 0,-3.1836 -0.29,-5.332"
         style="fill:#231f20;fill-opacity:1;fill-rule:nonzero;stroke:none"
         id="path3044" /><path
         d="m 1341.53,34.5703 c -5.32,0 -10.8,0.586 -15.12,1.4453 l 0.28,9.9414 c 4.61,-1.289 10.38,-2.3047 15.99,-2.3047 10.37,0 17.58,4.6094 17.58,12.0899 0,17.2851 -34.86,6.4844 -34.86,31.9922 0,11.9531 9.8,21.0156 27.94,21.0156 4.47,0 9.52,-0.703 13.98,-1.582 l -0.29,-9.3555 c -4.76,1.582 -9.94,2.4415 -14.84,2.4415 -10.52,0 -15.7,-4.3165 -15.7,-11.3673 0,-17.1484 35,-7.3437 35,-31.6992 0,-12.6758 -11.23,-22.6172 -29.96,-22.6172"
         style="fill:#231f20;fill-opacity:1;fill-rule:nonzero;stroke:none"
         id="path3046" /><path
         d="m 1445.22,99.8242 c -11.23,0 -21.89,-8.4961 -21.89,-27.6562 0,-18.2813 7.92,-28.3789 21.89,-28.3789 11.23,0 21.46,8.6523 21.46,28.3789 0,17.2851 -7.2,27.6562 -21.46,27.6562 z m -1.58,-65.2539 c -19.16,0 -31.55,11.6797 -31.55,36.7383 0,20.4492 12.68,37.4414 34.14,37.4414 17.43,0 31.69,-9.6484 31.69,-35.8594 0,-21.3086 -13.11,-38.3203 -34.28,-38.3203"
         style="fill:#231f20;fill-opacity:1;fill-rule:nonzero;stroke:none"
         id="path3048" /><path
         d="m 1565.32,131.367 c -3.61,1.153 -7.5,1.582 -11.24,1.582 -10.95,0 -15.85,-6.328 -15.85,-20.156 l 0,-5.332 21.18,0 0,-8.4962 -21.18,0 0,-63.0859 -10.8,0 0,63.0859 -15.56,0 0,8.4962 15.56,0 0,5.039 c 0,20.02 9.94,29.238 27.08,29.238 4.03,0 7.92,-0.429 11.81,-1.289 l -1,-9.082"
         style="fill:#231f20;fill-opacity:1;fill-rule:nonzero;stroke:none"
         id="path3050" /><path
         d="m 1622.18,34.7266 c -14.4,0 -18.58,6.3281 -18.58,21.1718 l 0,43.0664 -15.55,0 0,8.4962 15.55,0 0,23.769 10.81,3.028 0,-26.797 21.02,0 0,-8.4962 -21.02,0 0,-38.6132 c 0,-12.8125 2.3,-16.1328 10.8,-16.1328 3.6,0 7.34,0.4492 10.22,1.3085 l 0,-9.375 c -3.74,-0.8593 -8.78,-1.4257 -13.25,-1.4257"
         style="fill:#231f20;fill-opacity:1;fill-rule:nonzero;stroke:none"
         id="path3052" /><path
         d="m 1755.83,35.8789 -12.52,0 -15.71,46.2305 c -1.58,4.4726 -2.73,8.9258 -4.03,13.6914 l -0.15,0 c -1.43,-6.1914 -3.31,-11.9531 -5.17,-18.0078 l -13.12,-41.9141 -12.53,0 -22.18,71.5821 12.1,0 12.24,-42.6368 c 1.88,-6.3281 3.75,-12.6758 4.9,-17.5781 l 0.15,0 c 1.44,5.7617 3.02,11.8164 4.89,17.5781 l 13.68,42.6368 12.25,0 13.83,-42.5001 c 2.88,-8.9257 4.03,-13.1054 5.18,-17.8515 l 0.29,0 c 1.3,5.625 2.74,10.2344 4.9,17.5781 l 12.82,42.7735 11.52,0 -23.34,-71.5821"
         style="fill:#231f20;fill-opacity:1;fill-rule:nonzero;stroke:none"
         id="path3054" /><path
         d="m 1859.36,69.4336 c -26.93,0 -32.69,-8.4961 -32.69,-15.4102 0,-6.4843 4.6,-10.664 11.66,-10.664 12.67,0 21.03,12.539 21.03,24.9219 l 0,1.1523 z m 0.58,-33.5547 c 0,5.4688 0,10.9375 0.72,15.1172 l -0.29,0 c -3.46,-9.082 -12.68,-16.4258 -24.92,-16.4258 -11.38,0 -19.59,6.0547 -19.59,17.4414 0,14.9805 15.55,25.3516 43.5,25.3516 l 0,5.8984 c 0,10.8008 -3.89,16.8553 -16.28,16.8553 -6.91,0 -15.56,-2.1678 -21.89,-6.1912 l -1.01,9.5122 c 6.77,3.007 15.13,5.312 24.78,5.312 19.73,0 25.35,-9.7852 25.35,-23.3203 l 0,-28.0859 c 0,-7.0704 0,-15.1368 0.28,-21.4649 l -10.65,0"
         style="fill:#231f20;fill-opacity:1;fill-rule:nonzero;stroke:none"
         id="path3056" /><path
         d="m 1957.56,98.1055 c -15.84,2.5785 -23.34,-9.5117 -23.34,-33.5742 l 0,-28.6524 -10.8,0 0,71.5821 10.67,0 c 0,-4.746 -0.58,-11.8165 -1.59,-18.0079 l 0.14,-0.1367 c 2.88,10.5078 10.37,21.1716 25.35,19.4336 l -0.43,-10.6445"
         style="fill:#231f20;fill-opacity:1;fill-rule:nonzero;stroke:none"
         id="path3058" /><path
         d="m 2025.24,100.547 c -10.09,0 -17.29,-7.3439 -19.02,-18.5743 l 36.3,0 c 0.29,11.0937 -6.34,18.5743 -17.28,18.5743 z m 28.22,-26.6407 -47.81,0 c -0.72,-21.4649 7.77,-30.3907 23.76,-30.3907 7.49,0 15.42,1.8555 20.74,4.6094 l 1.01,-9.2187 c -6.62,-2.754 -14.69,-4.336 -23.62,-4.336 -21.61,0 -33.13,11.6797 -33.13,36.7383 0,21.4648 11.52,37.4414 31.4,37.4414 19.73,0 27.94,-13.6719 27.94,-29.5117 0,-1.3086 0,-3.1836 -0.29,-5.332"
         style="fill:#231f20;fill-opacity:1;fill-rule:nonzero;stroke:none"
         id="path3060" /></g></g></svg>